<svg width="16" height="18" fill="none" xmlns="http://www.w3.org/2000/svg"><path d="M13.833 17H2.167C1.522 17 1 16.51 1 15.904c0-1.812 1.197-3.434 3.004-4.07l.359-.126a10.995 10.995 0 017.274 0l.359.126c1.807.636 3.004 2.258 3.004 4.07C15 16.51 14.478 17 13.833 17zM6.221 8.473a4.118 4.118 0 003.558 0c1.039-.501 1.783-1.414 2.028-2.487l.065-.286a3.703 3.703 0 00-.732-3.14l-.105-.132C10.319 1.529 9.195 1 8 1s-2.32.53-3.035 1.428l-.105.131a3.703 3.703 0 00-.732 3.14l.065.287c.245 1.073.99 1.986 2.028 2.487z" stroke="#01170A" stroke-linecap="square" stroke-linejoin="round"/></svg>